<svg width="62" height="18" viewBox="0 0 62 18" fill="none" xmlns="http://www.w3.org/2000/svg">
<path d="M5.36719 17.2344C4.5 17.2344 3.70703 17.0156 2.98828 16.5781C2.27734 16.1406 1.71094 15.5547 1.28906 14.8203C0.875 14.0781 0.667969 13.2539 0.667969 12.3477L0.691406 4.85938C0.691406 3.96875 0.894531 3.16406 1.30078 2.44531C1.70703 1.71875 2.26562 1.13672 2.97656 0.699219C3.69531 0.253906 4.49219 0.03125 5.36719 0.03125C6.25781 0.03125 7.05078 0.246094 7.74609 0.675781C8.44922 1.10547 9.00781 1.6875 9.42188 2.42188C9.84375 3.14844 10.0547 3.96094 10.0547 4.85938V5.96094C10.0547 6.02344 10.0234 6.05469 9.96094 6.05469H7.26562C7.20312 6.05469 7.17188 6.02344 7.17188 5.96094V4.85938C7.17188 4.32813 7 3.87109 6.65625 3.48828C6.3125 3.10547 5.88281 2.91406 5.36719 2.91406C4.79688 2.91406 4.35938 3.10938 4.05469 3.5C3.75 3.89062 3.59766 4.34375 3.59766 4.85938V12.3477C3.59766 12.9336 3.76953 13.4141 4.11328 13.7891C4.45703 14.1562 4.875 14.3398 5.36719 14.3398C5.88281 14.3398 6.3125 14.1367 6.65625 13.7305C7 13.3164 7.17188 12.8555 7.17188 12.3477V11.2344C7.17188 11.1719 7.20312 11.1406 7.26562 11.1406H9.98438C10.0469 11.1406 10.0781 11.1719 10.0781 11.2344V12.3477C10.0781 13.2461 9.86719 14.0664 9.44531 14.8086C9.01562 15.543 8.44922 16.1328 7.74609 16.5781C7.04297 17.0156 6.25 17.2344 5.36719 17.2344ZM15.7856 17.2344C14.9341 17.2344 14.1489 17.0156 13.4302 16.5781C12.7192 16.1406 12.145 15.5586 11.7075 14.832C11.2778 14.0977 11.063 13.293 11.063 12.418L11.0864 4.8125C11.0864 3.92188 11.3013 3.12109 11.7309 2.41016C12.1528 1.69141 12.7231 1.11719 13.4419 0.6875C14.1606 0.25 14.9419 0.03125 15.7856 0.03125C16.6606 0.03125 17.4458 0.246094 18.1411 0.675781C18.8442 1.10547 19.4067 1.68359 19.8286 2.41016C20.2583 3.12891 20.4731 3.92969 20.4731 4.8125L20.4966 12.418C20.4966 13.293 20.2856 14.0938 19.8638 14.8203C19.4341 15.5547 18.8638 16.1406 18.1528 16.5781C17.4419 17.0156 16.6528 17.2344 15.7856 17.2344ZM15.7856 14.3398C16.27 14.3398 16.6919 14.1445 17.0513 13.7539C17.4106 13.3555 17.5903 12.9102 17.5903 12.418L17.5669 4.8125C17.5669 4.28125 17.3989 3.83203 17.063 3.46484C16.727 3.09766 16.3013 2.91406 15.7856 2.91406C15.2934 2.91406 14.8716 3.09375 14.52 3.45312C14.1684 3.8125 13.9927 4.26562 13.9927 4.8125V12.418C13.9927 12.9414 14.1684 13.3945 14.52 13.7773C14.8716 14.1523 15.2934 14.3398 15.7856 14.3398ZM24.4463 17H22.0439C21.9189 17 21.8564 16.9453 21.8564 16.8359L21.833 0.488281C21.833 0.363281 21.8955 0.300781 22.0205 0.300781H24.1884L28.2431 9.75781L28.1259 0.488281C28.1259 0.363281 28.1963 0.300781 28.3369 0.300781H30.7158C30.8095 0.300781 30.8564 0.363281 30.8564 0.488281L30.8798 16.8594C30.8798 16.9531 30.8408 17 30.7627 17H28.6533L24.4931 8.16406L24.6689 16.8125C24.6689 16.9375 24.5947 17 24.4463 17ZM35.2983 17H32.603C32.5248 17 32.4858 16.9609 32.4858 16.8828L32.5327 0.394531C32.5327 0.332031 32.5639 0.300781 32.6264 0.300781H40.3139C40.392 0.300781 40.4311 0.332031 40.4311 0.394531V3.10156C40.4311 3.16406 40.3998 3.19531 40.3373 3.19531H35.4155V6.92188H40.3373C40.3998 6.92188 40.4311 6.96094 40.4311 7.03906L40.4545 9.75781C40.4545 9.82031 40.4155 9.85156 40.3373 9.85156H35.4155V16.8828C35.4155 16.9609 35.3764 17 35.2983 17ZM41.2988 16.8828L44.2753 0.394531C44.2909 0.332031 44.33 0.300781 44.3925 0.300781H47.873C47.9355 0.300781 47.9745 0.332031 47.9902 0.394531L50.8495 16.8828C50.8573 16.9609 50.8261 17 50.7558 17H48.0956C48.0175 17 47.9745 16.9609 47.9667 16.8828L47.7089 15.125H44.4394L44.1816 16.8828C44.1738 16.9609 44.1347 17 44.0644 17H41.3925C41.33 17 41.2988 16.9609 41.2988 16.8828ZM45.998 5.82031L44.9198 12.5586H47.2284L46.2441 5.82031L46.1034 4.92969L45.998 5.82031ZM56.2641 17H51.9633C51.9008 17 51.8695 16.9609 51.8695 16.8828L51.9164 0.394531C51.9164 0.332031 51.9477 0.300781 52.0102 0.300781H56.6273C57.5258 0.300781 58.3422 0.519531 59.0766 0.957031C59.7953 1.39453 60.3617 1.97656 60.7758 2.70312C61.1898 3.42187 61.3969 4.20312 61.3969 5.04688C61.3969 5.73438 61.2406 6.375 60.9281 6.96875C60.6156 7.5625 60.2445 8.04297 59.8148 8.41016C60.2758 8.87109 60.6352 9.40625 60.893 10.0156C61.1508 10.625 61.2797 11.2656 61.2797 11.9375C61.2797 12.8672 61.057 13.7148 60.6117 14.4805C60.1586 15.2461 59.5531 15.8594 58.7953 16.3203C58.0375 16.7734 57.1937 17 56.2641 17ZM56.6273 3.14844H54.7992V6.92188H56.6273C57.182 6.92188 57.6312 6.72656 57.975 6.33594C58.3187 5.9375 58.4906 5.50781 58.4906 5.04688C58.4906 4.53906 58.307 4.09766 57.9398 3.72266C57.5727 3.33984 57.1352 3.14844 56.6273 3.14844ZM56.2641 9.82812H54.7992L54.7758 14.0703H56.2641C56.8422 14.0703 57.3383 13.8594 57.7523 13.4375C58.1664 13.0156 58.3734 12.5156 58.3734 11.9375C58.3734 11.3594 58.1664 10.8633 57.7523 10.4492C57.3383 10.0352 56.8422 9.82812 56.2641 9.82812Z" fill="#4E4F51"/>
</svg>
